<svg width="24" height="24" viewBox="0 0 24 24" fill="none" xmlns="http://www.w3.org/2000/svg">
<g clip-path="url(#clip0_208_386)">
<path d="M12.1356 3.12907L23.9244 10.6597C23.596 7.72774 22.1986 5.01963 19.9992 3.05311C17.7999 1.08659 14.9529 -0.000373637 12.0026 9.63439e-08C9.0523 -0.000373637 6.20534 1.08659 4.006 3.05311C1.80666 5.01963 0.409192 7.72774 0.0808105 10.6597L11.8644 3.13168C11.9025 3.10041 11.9502 3.08311 11.9995 3.08263C12.0488 3.08216 12.0969 3.09854 12.1356 3.12907Z" fill="#009A3A"/>
<path d="M23.9296 13.309L12.1356 20.8396L12 20.9231L11.8957 20.8579L0.072998 13.296C0.394306 16.2345 1.78938 18.9509 3.99055 20.9239C6.19172 22.897 9.04395 23.9878 12 23.987C14.9545 23.9888 17.8057 22.9001 20.0071 20.9297C22.2085 18.9592 23.6052 16.2456 23.9296 13.309Z" fill="#009A3A"/>
<path d="M11.9999 20.9231L12.1355 20.8397L23.9295 13.309C24.0268 12.4286 24.0268 11.5401 23.9295 10.6597L12.1407 3.12909C12.1019 3.09686 12.053 3.07922 12.0025 3.07922C11.952 3.07922 11.9032 3.09686 11.8643 3.12909L0.0807246 10.6571C0.0318468 11.1022 0.00662663 11.5496 0.00512695 11.9974C0.00571026 12.433 0.0300914 12.8682 0.0781463 13.3012L11.9008 20.8631L11.9999 20.9231ZM7.00642 12C7.00881 11.5676 7.06666 11.1374 7.17853 10.7197C7.17853 10.6728 7.20719 10.6258 7.22023 10.5763L7.25152 10.4798C7.28876 10.3568 7.33228 10.2359 7.3819 10.1174C7.3819 10.0861 7.40798 10.0522 7.42363 10.0209L7.45231 9.95048C7.92101 8.91102 8.73188 8.06362 9.74968 7.54958C10.7675 7.03553 11.9307 6.8859 13.0455 7.12562C14.1602 7.36535 15.1592 7.97995 15.8757 8.86696C16.5922 9.75396 16.983 10.8598 16.983 12C16.9824 12.2217 16.9658 12.443 16.9334 12.6623C16.9021 12.9324 16.8445 13.1988 16.7613 13.4576C16.4111 14.6001 15.6624 15.579 14.6514 16.216C13.6404 16.8531 12.4343 17.106 11.2525 16.9289C10.0707 16.7517 8.99184 16.1562 8.2121 15.2506C7.43236 14.3451 7.00359 13.1898 7.00381 11.9948L7.00642 12Z" fill="#FDDE00"/>
<path d="M13.966 10.8344C15.0401 11.2955 16.0415 11.9103 16.9386 12.6597C16.9711 12.4404 16.9876 12.219 16.9882 11.9974C16.9882 10.8571 16.5974 9.75131 15.8809 8.86431C15.1644 7.9773 14.1655 7.3627 13.0507 7.12297C11.9359 6.88325 10.7727 7.03288 9.75489 7.54693C8.73709 8.06097 7.92622 8.90836 7.45752 9.94783C7.84344 9.90611 8.19548 9.86699 8.584 9.84874C10.4296 9.76469 12.27 10.1017 13.966 10.8344ZM13.5175 10.3546L13.5592 10.2268L13.6009 10.3546H13.7339L13.627 10.4328L13.6687 10.558L13.5592 10.4798L13.4523 10.558L13.4914 10.4328L13.3845 10.3546H13.5175Z" fill="#002776"/>
<path d="M16.7692 13.4628C16.7692 13.4628 15.9139 12.7536 15.4393 12.4433C14.1039 11.5623 12.598 10.9724 11.0195 10.7118C9.90536 10.529 8.77054 10.5088 7.65056 10.6519C7.48367 10.6727 7.35071 10.6962 7.18383 10.7197C7.07195 11.1373 7.0141 11.5676 7.01172 12C7.0115 13.195 7.44027 14.3503 8.22001 15.2558C8.99975 16.1613 10.0786 16.7569 11.2604 16.934C12.4422 17.1112 13.6483 16.8583 14.6593 16.2212C15.6703 15.5841 16.419 14.6053 16.7692 13.4628ZM7.82528 13.7966L7.71575 13.7184L7.60625 13.7966L7.64795 13.6688L7.53845 13.588H7.67405L7.71575 13.4602L7.75748 13.588H7.89308L7.78355 13.6688L7.82528 13.7966ZM7.99738 11.2542L7.88264 11.1682L7.76531 11.2542L7.80962 11.1186L7.6949 11.0326H7.8383L7.88264 10.897L7.92698 11.0326H8.07037L7.95304 11.1186L7.99738 11.2542ZM8.40154 13.2255L8.44849 13.3663L8.32852 13.2777L8.21119 13.3663L8.25553 13.2255L8.13556 13.1395H8.28421L8.32852 12.9987L8.37547 13.1395H8.52151L8.40154 13.2255ZM8.88915 12.9439L8.84223 12.91L8.79267 12.9439L8.81094 12.8892L8.76399 12.8527H8.82396L8.84223 12.7979L8.86047 12.8527H8.91783L8.87091 12.8892L8.88915 12.9439ZM9.3194 14.2712L9.25682 14.2268L9.19686 14.2712L9.22032 14.1982L9.15774 14.1538H9.23598L9.25682 14.0834L9.28028 14.1538H9.35852L9.29594 14.1982L9.3194 14.2712ZM9.47846 13.8201L9.39503 13.7575L9.30896 13.8201L9.34286 13.721L9.25682 13.6584H9.36113L9.39503 13.5593L9.42632 13.6584H9.53063L9.44456 13.721L9.47846 13.8201ZM10.0834 14.7875L9.98695 14.7171L9.88787 14.7875L9.92695 14.6727L9.82787 14.6023H9.95045L9.98695 14.4902L10.0234 14.6023H10.1434L10.0469 14.6727L10.0834 14.7875ZM10.1773 12.3103L10.086 12.2451L9.99736 12.3103L10.0313 12.206L9.94261 12.1408H10.0521L10.086 12.0339L10.1199 12.1408H10.2321L10.1434 12.206L10.1773 12.3103ZM16.1903 13.7549L16.2164 13.6766L16.2425 13.7549H16.3259L16.2581 13.8044L16.2842 13.8826L16.2164 13.8331L16.1486 13.8826L16.1747 13.8044L16.1069 13.7549H16.1903ZM15.7575 14.159H15.8514L15.7757 14.2164L15.8044 14.3051L15.7288 14.2503L15.6506 14.3051L15.6819 14.2164L15.6036 14.159H15.6975L15.7288 14.0704L15.7575 14.159ZM15.468 13.6819L15.5124 13.5437L15.5593 13.6819H15.7027L15.5854 13.7679L15.6297 13.9061L15.5124 13.8201L15.395 13.9061L15.442 13.7679L15.322 13.6819H15.468ZM15.3768 14.5632L15.4133 14.4511L15.4498 14.5632H15.5645L15.4706 14.631L15.5071 14.7405L15.4133 14.6727L15.3194 14.7405L15.3559 14.631L15.262 14.5632H15.3768ZM14.9596 14.824L14.9856 14.7457L15.0091 14.824H15.0925L15.0247 14.8735L15.0508 14.9517L14.9856 14.9048L14.9178 14.9517L14.9439 14.8735L14.8761 14.824H14.9596ZM14.5997 15.3663L14.5163 15.3064L14.4302 15.3663L14.4641 15.2673L14.3781 15.2073H14.4824L14.5163 15.1082L14.5476 15.2073H14.6519L14.5684 15.2673L14.5997 15.3663ZM14.4824 14.7118L14.5163 14.6128L14.5476 14.7118H14.6519L14.5684 14.7718L14.5997 14.8709L14.5163 14.8109L14.4302 14.8709L14.4641 14.7718L14.3781 14.7118H14.4824ZM14.4693 15.7236L14.5032 15.6245L14.5345 15.7236H14.6388L14.5554 15.7836L14.5867 15.8826L14.5032 15.8227L14.4172 15.8826L14.4511 15.7836L14.365 15.7236H14.4693ZM13.8931 14.8996L13.927 14.8005L13.9583 14.8996H14.0626L13.9791 14.9596L14.0104 15.0587L13.927 14.9987L13.8409 15.0587L13.8748 14.9596L13.7888 14.8996H13.8931ZM13.5306 15.3351H13.6349L13.5489 15.395L13.5828 15.4941L13.4967 15.4341L13.4133 15.4941L13.4446 15.395L13.3611 15.3351H13.4654L13.4967 15.236L13.5306 15.3351ZM13.3324 11.6845L13.3585 11.6062L13.3846 11.6845H13.468L13.4002 11.734L13.4263 11.8122L13.3585 11.7627L13.2907 11.8122L13.3168 11.734L13.249 11.6845H13.3324ZM13.0717 14.7666L13.0978 14.6884L13.1238 14.7666H13.2047L13.1395 14.8162L13.1629 14.8944L13.0978 14.8448L13.03 14.8944L13.056 14.8162L12.9882 14.7666H13.0717ZM12.5345 13.2021L12.5684 13.0926L12.6049 13.2021H12.7223L12.6284 13.2725L12.6649 13.3846L12.5684 13.3142L12.4745 13.3846L12.5111 13.2725L12.4172 13.2021H12.5345ZM11.9348 12.751L11.9713 12.6388L12.0078 12.751H12.1251L12.0313 12.8188L12.0678 12.9309L11.9713 12.8631L11.8774 12.9309L11.9139 12.8188L11.8174 12.751H11.9348ZM11.5489 13.3429L11.4759 13.2881L11.4002 13.3429L11.4289 13.2542L11.3559 13.1995H11.4472L11.4759 13.1134L11.5045 13.1995H11.5958L11.5202 13.2542L11.5489 13.3429ZM11.7835 13.6636L11.7262 13.6219L11.6662 13.6636L11.6897 13.5958L11.6297 13.5515H11.7027L11.7262 13.4837L11.7496 13.5515H11.82L11.7627 13.5958L11.7835 13.6636ZM11.8279 14.1851H11.9452L11.9817 14.073L12.0182 14.1851H12.1356L12.0417 14.2529L12.0782 14.365L11.9817 14.2972L11.8878 14.365L11.9244 14.2529L11.8279 14.1851ZM11.9609 15.9531V15.9087L11.9244 15.8826H11.9713L11.9843 15.8357L12 15.8826H12.0469L12.0078 15.9087L12.0234 15.9531L11.9843 15.927L11.9609 15.9531Z" fill="#002776"/>
<path d="M7.9269 11.0326L7.88257 10.897L7.83824 11.0326H7.69482L7.80956 11.116L7.76523 11.2516L7.88257 11.1682L7.9973 11.2516L7.95297 11.116L8.07031 11.0326H7.9269Z" fill="white"/>
<path d="M10.1199 12.1382L10.086 12.0339L10.0521 12.1382H9.94263L10.0313 12.2034L9.99739 12.3103L10.086 12.2451L10.1773 12.3103L10.1434 12.2034L10.2321 12.1382H10.1199Z" fill="white"/>
<path d="M8.32846 12.9987L8.28413 13.1369H8.1355L8.25545 13.2256L8.21112 13.3638L8.32846 13.2777L8.44841 13.3638L8.40147 13.2256L8.52142 13.1369H8.37539L8.32846 12.9987Z" fill="white"/>
<path d="M7.75761 13.588L7.71589 13.4602L7.67417 13.588H7.53857L7.64809 13.6688L7.60637 13.7966L7.71589 13.7184L7.82541 13.7966L7.78369 13.6688L7.8932 13.588H7.75761Z" fill="white"/>
<path d="M8.8604 12.8527L8.84214 12.7979L8.82389 12.8527H8.76392L8.81085 12.8866L8.7926 12.9439L8.84214 12.91L8.88908 12.9439L8.87083 12.8866L8.91776 12.8527H8.8604Z" fill="white"/>
<path d="M9.42633 13.6584L9.39243 13.5593L9.36114 13.6584H9.25684L9.34289 13.7184L9.30899 13.8175L9.39243 13.7575L9.47848 13.8175L9.44719 13.7184L9.53063 13.6584H9.42633Z" fill="white"/>
<path d="M9.28035 14.1538L9.25949 14.0808L9.23341 14.1538H9.1604L9.22037 14.1982L9.19691 14.2712L9.25949 14.2242L9.31946 14.2712L9.29599 14.1982L9.35597 14.1538H9.28035Z" fill="white"/>
<path d="M10.0235 14.6023L9.98702 14.4876L9.95051 14.6023H9.83057L9.92705 14.6727L9.88793 14.7875L9.98702 14.7171L10.0835 14.7875L10.047 14.6727L10.1435 14.6023H10.0235Z" fill="white"/>
<path d="M11.5151 13.1995L11.489 13.1108L11.4603 13.1995H11.3665L11.4421 13.2543L11.4134 13.3403L11.489 13.2882L11.562 13.3403L11.5333 13.2543L11.609 13.1995H11.5151Z" fill="white"/>
<path d="M11.7628 13.5515L11.7393 13.4837L11.7158 13.5515H11.6428L11.7028 13.5932L11.6793 13.6636L11.7393 13.6219L11.7967 13.6636L11.7758 13.5932L11.8332 13.5515H11.7628Z" fill="white"/>
<path d="M12.4875 13.382L12.584 13.3142L12.6779 13.382L12.6414 13.2725L12.7353 13.2021H12.6179L12.584 13.09L12.5475 13.2021H12.4302L12.524 13.2725L12.4875 13.382Z" fill="white"/>
<path d="M11.9947 14.3025L12.0911 14.3729L12.0546 14.2607L12.1485 14.1903H12.0312L11.9947 14.0808L11.9582 14.1903H11.8408L11.9373 14.2607L11.9008 14.3729L11.9947 14.3025Z" fill="white"/>
<path d="M13.0429 14.897L13.1107 14.8474L13.1759 14.897L13.1525 14.8187L13.2176 14.7692H13.1368L13.1107 14.691L13.0847 14.7692H13.0012L13.069 14.8187L13.0429 14.897Z" fill="white"/>
<path d="M13.8436 15.0535L13.927 14.9935L14.0105 15.0535L13.9792 14.9544L14.0626 14.8944H13.9583L13.927 14.7927L13.8931 14.8944H13.7888L13.8749 14.9544L13.8436 15.0535Z" fill="white"/>
<path d="M13.3611 15.3272L13.4445 15.3898L13.4132 15.4889L13.4993 15.4263L13.5827 15.4889L13.5514 15.3898L13.6349 15.3272H13.5306L13.4993 15.2281L13.4654 15.3272H13.3611Z" fill="white"/>
<path d="M14.5475 15.2021L14.5162 15.103L14.4823 15.2021H14.3806L14.4641 15.2621L14.4302 15.3612L14.5162 15.3012L14.5997 15.3612L14.5684 15.2621L14.6518 15.2021H14.5475Z" fill="white"/>
<path d="M14.4171 15.8775L14.5032 15.8149L14.5866 15.8775L14.5553 15.7784L14.6388 15.7158H14.5345L14.5032 15.6167L14.4693 15.7158H14.365L14.451 15.7784L14.4171 15.8775Z" fill="white"/>
<path d="M14.4303 14.8657L14.5164 14.8031L14.5998 14.8657L14.5685 14.7666L14.652 14.7066H14.5477L14.5164 14.6075L14.4825 14.7066H14.3782L14.4642 14.7666L14.4303 14.8657Z" fill="white"/>
<path d="M15.3951 13.9062L15.5124 13.8201L15.6298 13.9062L15.5855 13.768L15.7028 13.6819H15.5594L15.5124 13.5437L15.4681 13.6819H15.3247L15.442 13.768L15.3951 13.9062Z" fill="white"/>
<path d="M15.6038 14.1591L15.6794 14.2138L15.6507 14.3051L15.7289 14.2477L15.8045 14.3051L15.7759 14.2138L15.8515 14.1591H15.7576L15.7289 14.0704L15.6976 14.1591H15.6038Z" fill="white"/>
<path d="M15.3193 14.7379L15.4132 14.6728L15.5071 14.7379L15.4706 14.6284L15.5644 14.5606H15.4497L15.4132 14.4511L15.3767 14.5606H15.262L15.3558 14.6284L15.3193 14.7379Z" fill="white"/>
<path d="M14.9179 14.9465L14.9857 14.897L15.0509 14.9465L15.0275 14.8683L15.0926 14.8188H15.0092L14.9857 14.7405L14.9597 14.8188H14.8762L14.944 14.8683L14.9179 14.9465Z" fill="white"/>
<path d="M16.1487 13.8827L16.2165 13.8331L16.2842 13.8827L16.2582 13.8018L16.326 13.7549H16.2425L16.2165 13.6741L16.1904 13.7549H16.1069L16.1747 13.8018L16.1487 13.8827Z" fill="white"/>
<path d="M13.2907 11.8149L13.3585 11.7653L13.4263 11.8149L13.4003 11.7366L13.4681 11.6871H13.3846L13.3585 11.6063L13.3325 11.6871H13.249L13.3168 11.7366L13.2907 11.8149Z" fill="white"/>
<path d="M13.4523 10.558L13.5592 10.4798L13.6687 10.558L13.627 10.4302L13.7339 10.352H13.601L13.5592 10.2242L13.5175 10.352H13.3845L13.4914 10.4302L13.4523 10.558Z" fill="white"/>
<path d="M12.0209 15.9191L12.0601 15.8905H12.0131L12.0001 15.8461L11.9844 15.8905H11.9375L11.974 15.9191L11.961 15.9635L12.0001 15.9348L12.0366 15.9635L12.0209 15.9191Z" fill="white"/>
<path d="M11.8905 12.9309L11.9844 12.8631L12.0809 12.9309L12.0444 12.8188L12.1383 12.751H12.0209L11.9844 12.6389L11.9479 12.751H11.8306L11.927 12.8188L11.8905 12.9309Z" fill="white"/>
<path d="M16.4251 12.8553C16.4697 12.8428 16.5079 12.8139 16.532 12.7744C16.547 12.7574 16.5584 12.7376 16.5655 12.7161C16.5727 12.6946 16.5755 12.6718 16.5737 12.6493C16.5726 12.6304 16.5671 12.6121 16.5576 12.5958C16.548 12.5794 16.5348 12.5656 16.5189 12.5554C16.5033 12.544 16.4855 12.5361 16.4667 12.5321C16.4478 12.528 16.4283 12.528 16.4095 12.5319C16.3655 12.5441 16.3275 12.5719 16.3025 12.6101C16.2875 12.6276 16.276 12.6479 16.2689 12.6699C16.2617 12.6918 16.259 12.7149 16.2608 12.7379C16.2624 12.757 16.2684 12.7754 16.2784 12.7917C16.2883 12.8079 16.3019 12.8217 16.3182 12.8318C16.3333 12.8431 16.3507 12.851 16.3691 12.855C16.3875 12.8591 16.4066 12.8592 16.4251 12.8553Z" fill="white"/>
<path d="M7.87211 10.2764C7.87528 10.2313 7.86134 10.1866 7.83303 10.1512C7.8205 10.1367 7.80483 10.1251 7.78722 10.1175C7.76961 10.1098 7.75052 10.1062 7.73133 10.1069C7.71175 10.1062 7.69225 10.1097 7.67422 10.1174C7.65619 10.1251 7.64007 10.1366 7.62702 10.1512C7.59907 10.189 7.58398 10.2347 7.58398 10.2816C7.58398 10.3286 7.59907 10.3743 7.62702 10.412C7.63955 10.4266 7.65518 10.4381 7.67279 10.4458C7.6904 10.4535 7.70952 10.4571 7.72872 10.4563C7.74832 10.4573 7.76786 10.4538 7.78592 10.4461C7.80398 10.4384 7.8201 10.4268 7.83303 10.412C7.84835 10.3932 7.85969 10.3715 7.86642 10.3482C7.87314 10.3249 7.87507 10.3005 7.87211 10.2764Z" fill="white"/>
<path d="M13.1708 11.0795C13.1884 11.0879 13.2075 11.0922 13.2269 11.0922C13.2463 11.0922 13.2654 11.0879 13.283 11.0795C13.3249 11.0611 13.3585 11.0276 13.3769 10.9857C13.3994 10.9462 13.4068 10.8998 13.3977 10.8553C13.393 10.837 13.3843 10.8199 13.3721 10.8055C13.3599 10.791 13.3446 10.7795 13.3273 10.7718C13.3096 10.7642 13.2905 10.7602 13.2712 10.7602C13.252 10.7602 13.2329 10.7642 13.2152 10.7718C13.1726 10.7906 13.1389 10.8252 13.1213 10.8683C13.1094 10.8876 13.1014 10.9091 13.0979 10.9314C13.0943 10.9538 13.0952 10.9767 13.1004 10.9987C13.1058 11.0164 13.1148 11.0327 13.127 11.0467C13.1391 11.0606 13.1541 11.0718 13.1708 11.0795Z" fill="white"/>
<path d="M12.7641 10.6858C12.7721 10.6819 12.7793 10.6765 12.7851 10.6698C12.7909 10.663 12.7953 10.6552 12.798 10.6467C12.798 10.618 12.798 10.5841 12.738 10.5606L12.6155 10.5189L12.5737 10.6389L12.6885 10.6754C12.7119 10.687 12.7384 10.6907 12.7641 10.6858Z" fill="white"/>
<path d="M12.1537 10.5294C12.1621 10.525 12.1692 10.5186 12.1747 10.5109C12.1801 10.5032 12.1837 10.4944 12.185 10.485C12.1903 10.4716 12.1903 10.4567 12.185 10.4433C12.1822 10.4328 12.1757 10.4235 12.1668 10.4172L12.112 10.3964L12.0155 10.3703L11.979 10.5007L12.0755 10.5268C12.1004 10.5368 12.1281 10.5377 12.1537 10.5294Z" fill="white"/>
<path d="M8.33895 10.1721C8.3646 10.1738 8.39015 10.1675 8.41197 10.1539C8.41891 10.1479 8.42404 10.1401 8.4268 10.1313C8.42956 10.1226 8.42983 10.1132 8.4276 10.1043C8.4276 10.0756 8.42761 10.0444 8.34156 10.047H8.21118V10.1747L8.33895 10.1721Z" fill="white"/>
<path d="M8.91264 10.3416C8.95804 10.3425 9.00199 10.3257 9.03519 10.2947C9.05747 10.257 9.06663 10.213 9.06126 10.1695C9.06167 10.1279 9.04786 10.0875 9.02214 10.0548C9.00439 10.0406 8.98375 10.0305 8.96169 10.0251C8.93962 10.0197 8.91666 10.0191 8.89437 10.0235H8.83179L8.84745 10.3416H8.91264Z" fill="white"/>
<path d="M11.0197 10.7118C12.5981 10.9724 14.104 11.5623 15.4395 12.4433C15.914 12.7536 16.7615 13.455 16.7693 13.4628C16.8525 13.204 16.9101 12.9376 16.9414 12.6675C16.0443 11.9181 15.0429 11.3033 13.9688 10.8422C12.2726 10.1105 10.4322 9.7743 8.58681 9.85917C8.19829 9.87742 7.84625 9.91654 7.46033 9.95826L7.43165 10.0287C7.41601 10.06 7.40296 10.0938 7.38992 10.1251C7.3403 10.2437 7.29679 10.3646 7.25954 10.4876L7.22825 10.5841C7.22825 10.6336 7.19695 10.6805 7.18652 10.7275C7.35341 10.704 7.4864 10.6806 7.65329 10.6597C8.77203 10.5143 9.90596 10.5319 11.0197 10.7118ZM16.386 12.4459C16.4176 12.4393 16.4503 12.4396 16.4819 12.4468C16.5134 12.454 16.5429 12.4679 16.5686 12.4876C16.595 12.5051 16.6173 12.5282 16.634 12.5552C16.6507 12.5822 16.6612 12.6125 16.665 12.644C16.6696 12.6774 16.6671 12.7114 16.6577 12.7438C16.6482 12.7761 16.6321 12.8061 16.6103 12.8318C16.5726 12.8879 16.5146 12.9271 16.4486 12.9413C16.3853 12.9519 16.3205 12.937 16.2682 12.8998C16.2159 12.8627 16.1804 12.8063 16.1696 12.7431C16.1628 12.6758 16.1824 12.6085 16.2243 12.5554C16.2439 12.5268 16.269 12.5024 16.2981 12.4836C16.3272 12.4648 16.3597 12.4519 16.3938 12.4459H16.386ZM15.7211 12.2816V12.2659L15.7967 12.3181V12.3311C15.791 12.3424 15.788 12.355 15.788 12.3676C15.788 12.3803 15.791 12.3928 15.7967 12.4042C15.8091 12.4303 15.8291 12.4521 15.8541 12.4667C15.8751 12.4829 15.9006 12.4921 15.9271 12.4928C15.9356 12.4935 15.9442 12.4919 15.952 12.4882C15.9598 12.4846 15.9665 12.479 15.9714 12.4719C15.9758 12.4644 15.978 12.4559 15.978 12.4472C15.978 12.4385 15.9758 12.4299 15.9714 12.4224C15.9508 12.3915 15.9273 12.3626 15.901 12.3364C15.867 12.3073 15.8418 12.2694 15.828 12.2268C15.8226 12.2105 15.8215 12.1931 15.8247 12.1762C15.8279 12.1594 15.8353 12.1436 15.8463 12.1304C15.8573 12.1131 15.8723 12.0986 15.8899 12.0882C15.9076 12.0778 15.9275 12.0717 15.948 12.0704C15.9949 12.0688 16.041 12.0835 16.0783 12.1121C16.1195 12.1369 16.1516 12.1744 16.1696 12.219C16.1762 12.2403 16.1779 12.2628 16.1748 12.2849C16.1716 12.307 16.1636 12.3282 16.1513 12.3468V12.3598L16.0757 12.3103C16.0914 12.2842 16.1018 12.2425 16.034 12.1982C16.0145 12.183 15.9909 12.1739 15.9662 12.1721C15.9586 12.1713 15.951 12.1725 15.9441 12.1758C15.9372 12.179 15.9313 12.184 15.9271 12.1903C15.9241 12.1955 15.9226 12.2013 15.9226 12.2073C15.9226 12.2132 15.9241 12.2191 15.9271 12.2242C15.9408 12.2486 15.9585 12.2706 15.9792 12.2894C16.0079 12.3207 16.0314 12.3468 16.047 12.3676C16.0623 12.3906 16.0729 12.4163 16.0783 12.4433C16.0807 12.4589 16.0799 12.4748 16.0758 12.49C16.0718 12.5053 16.0646 12.5196 16.0548 12.5319C16.0431 12.55 16.0274 12.565 16.0088 12.5759C15.9903 12.5867 15.9694 12.5931 15.948 12.5945C15.8959 12.5938 15.8452 12.5776 15.8024 12.5478C15.7597 12.5181 15.7268 12.4762 15.708 12.4276C15.6979 12.4041 15.6938 12.3785 15.696 12.353C15.6983 12.3275 15.7069 12.3029 15.7211 12.2816ZM15.1996 11.9348L15.2752 11.9817C15.2688 11.9928 15.2654 12.0054 15.2654 12.0182C15.2654 12.031 15.2688 12.0436 15.2752 12.0547C15.2878 12.0822 15.3088 12.1051 15.3352 12.1199C15.3569 12.1343 15.3821 12.1425 15.4082 12.1434C15.4171 12.143 15.4259 12.1404 15.4336 12.1359C15.4413 12.1313 15.4478 12.125 15.4525 12.1173C15.4576 12.1105 15.4603 12.1023 15.4603 12.0939C15.4603 12.0854 15.4576 12.0771 15.4525 12.0704C15.4312 12.04 15.4067 12.0121 15.3795 11.9869C15.3465 11.9575 15.3206 11.921 15.3039 11.88C15.2986 11.8634 15.2973 11.8458 15.3 11.8286C15.3027 11.8114 15.3094 11.7951 15.3195 11.7809C15.3294 11.7632 15.3438 11.7484 15.3612 11.7379C15.3785 11.7274 15.3983 11.7215 15.4186 11.721C15.4647 11.7162 15.511 11.7283 15.549 11.7549C15.5916 11.7795 15.6253 11.8169 15.6455 11.8618C15.653 11.8823 15.6557 11.9042 15.6534 11.9259C15.6511 11.9476 15.644 11.9684 15.6324 11.9869V12.0026L15.5568 11.953V11.94C15.5568 11.9139 15.5803 11.8748 15.5099 11.8305C15.4897 11.8169 15.4663 11.8089 15.4421 11.807C15.4343 11.807 15.4267 11.8089 15.4199 11.8125C15.4131 11.8162 15.4072 11.8214 15.403 11.8279C15.3997 11.8329 15.398 11.8388 15.398 11.8448C15.398 11.8508 15.3997 11.8567 15.403 11.8618C15.4179 11.8845 15.4354 11.9055 15.4551 11.9244C15.4802 11.948 15.5037 11.9733 15.5255 12C15.543 12.0219 15.5547 12.0479 15.5594 12.0756C15.5646 12.1064 15.5581 12.138 15.5412 12.1643C15.5289 12.182 15.5131 12.197 15.4947 12.2082C15.4762 12.2194 15.4556 12.2267 15.4342 12.2294C15.3854 12.2333 15.3367 12.2204 15.2961 12.1929C15.247 12.1661 15.209 12.1227 15.1891 12.0704C15.1827 12.0479 15.1807 12.0243 15.1834 12.001C15.1861 11.9777 15.1933 11.9552 15.2048 11.9348H15.1996ZM14.8475 11.3637L15.1709 11.5437L15.1266 11.6193L14.8867 11.4863L14.8345 11.5802L15.0562 11.7053L15.0144 11.7809L14.7902 11.6558L14.7276 11.7627L14.9884 11.9009L14.944 11.9765L14.6129 11.7914L14.8475 11.3637ZM14.2896 11.103L14.4877 11.2047C14.5153 11.2183 14.5408 11.2358 14.5633 11.2568C14.5737 11.2665 14.5821 11.2782 14.5879 11.2912C14.5937 11.3042 14.5969 11.3182 14.5972 11.3324C14.5999 11.3612 14.5945 11.3901 14.5816 11.4159C14.5665 11.4452 14.5416 11.4683 14.5112 11.4811C14.4915 11.486 14.4709 11.486 14.4512 11.4811C14.4595 11.51 14.4595 11.5408 14.4512 11.5697L14.4329 11.7262L14.3417 11.6792L14.3625 11.5384C14.3691 11.5208 14.3691 11.5013 14.3625 11.4837C14.3546 11.4657 14.3409 11.451 14.3235 11.442L14.2374 11.3976L14.1461 11.5723L14.0627 11.5306L14.2896 11.103ZM13.5933 11.0274C13.6221 10.9661 13.6735 10.9184 13.7367 10.8944C13.7675 10.884 13.8 10.8801 13.8322 10.8828C13.8645 10.8855 13.8959 10.8947 13.9245 10.91C13.9718 10.9335 14.0109 10.9708 14.0366 11.0169C14.0476 11.0378 14.0533 11.0611 14.0533 11.0847C14.0533 11.1083 14.0476 11.1316 14.0366 11.1525V11.1708L13.9506 11.1264V11.1134C13.9556 11.1028 13.9583 11.0912 13.9583 11.0795C13.9583 11.0678 13.9556 11.0562 13.9506 11.0456C13.9352 11.0187 13.9113 10.9976 13.8828 10.9856C13.8652 10.9773 13.8461 10.973 13.8267 10.973C13.8073 10.973 13.7881 10.9773 13.7706 10.9856C13.7287 11.004 13.6951 11.0375 13.6767 11.0795C13.6521 11.1182 13.6437 11.165 13.6533 11.2099C13.6587 11.2286 13.668 11.2459 13.6806 11.2607C13.6932 11.2755 13.7088 11.2875 13.7263 11.2959C13.7485 11.3074 13.7731 11.3133 13.798 11.3133C13.823 11.3133 13.8475 11.3074 13.8697 11.2959L13.8932 11.2542L13.7837 11.1969L13.8228 11.1212L14.0157 11.2177L13.8906 11.455L13.828 11.4237V11.3872C13.7778 11.396 13.7261 11.3867 13.682 11.3611C13.6528 11.3469 13.6269 11.3268 13.6058 11.3021C13.5848 11.2775 13.569 11.2487 13.5594 11.2177C13.546 11.1499 13.5601 11.0796 13.5985 11.0221L13.5933 11.0274ZM13.0301 10.8266C13.0436 10.7958 13.0633 10.768 13.0879 10.7452C13.1126 10.7223 13.1418 10.7047 13.1735 10.6936C13.2035 10.6822 13.2355 10.6775 13.2675 10.6798C13.2995 10.682 13.3306 10.6912 13.3586 10.7066C13.3876 10.7198 13.4135 10.7389 13.4346 10.7627C13.4557 10.7865 13.4716 10.8145 13.4812 10.8448C13.4985 10.9098 13.4901 10.9789 13.4577 11.0378C13.4295 11.1 13.378 11.1487 13.3143 11.1734C13.2853 11.1867 13.2537 11.1936 13.2217 11.1936C13.1898 11.1936 13.1582 11.1867 13.1292 11.1734C13.1002 11.1602 13.0743 11.1411 13.0532 11.1173C13.0321 11.0935 13.0162 11.0655 13.0066 11.0352C12.9959 10.9996 12.9929 10.962 12.9978 10.9252C13.0027 10.8883 13.0155 10.8529 13.0353 10.8214L13.0301 10.8266ZM12.5477 10.4146L12.7589 10.4876C12.7888 10.4956 12.8171 10.5088 12.8423 10.5267C12.854 10.5344 12.8639 10.5443 12.8715 10.556C12.8792 10.5677 12.8843 10.5808 12.8867 10.5945C12.8944 10.6236 12.8944 10.6541 12.8867 10.6832C12.875 10.7133 12.854 10.7389 12.8267 10.7562C12.8086 10.7672 12.7879 10.7735 12.7667 10.7744C12.783 10.8001 12.7912 10.8301 12.7902 10.8605V11.0169L12.6963 10.9856V10.8448C12.6967 10.8254 12.6913 10.8063 12.6807 10.7901C12.669 10.7752 12.6537 10.7636 12.6363 10.7562L12.5425 10.7249L12.4773 10.91L12.3886 10.8813L12.5477 10.4146ZM11.9427 10.2686L12.1253 10.3181C12.1579 10.3264 12.1894 10.3387 12.2191 10.3546C12.2454 10.3706 12.2649 10.3956 12.2739 10.425C12.2817 10.454 12.2817 10.4846 12.2739 10.5137C12.269 10.5356 12.2592 10.5562 12.2452 10.5738C12.2312 10.5914 12.2134 10.6056 12.1931 10.6154C12.1459 10.6325 12.0942 10.6325 12.047 10.6154L11.9505 10.5893L11.901 10.7666L11.8098 10.7431L11.9427 10.2686ZM10.991 10.1251L11.3091 10.1773V10.2529L11.0718 10.2138L11.0562 10.3077L11.2778 10.3442V10.4198L11.0562 10.3833L11.0379 10.4928L11.283 10.5319V10.6075L10.9571 10.5554L10.991 10.1251ZM9.92968 9.96347H9.98707H10.0444L10.1279 10.3207L10.2713 9.98433H10.3286V9.97129V9.98694H10.386L10.3469 10.4798H10.2556L10.2817 10.1721L10.1514 10.4693H10.0731L9.99487 10.1512L9.9688 10.4615H9.87754L9.92968 9.96347ZM9.3482 9.94262H9.71588V10.0287H9.44207V10.1382H9.70283V10.2164H9.44207V10.3416H9.72632V10.4276H9.35342L9.3482 9.94262ZM8.88666 9.94262C8.92068 9.93779 8.95537 9.94009 8.98845 9.94939C9.02154 9.95868 9.05231 9.97476 9.07885 9.99659C9.10539 10.0184 9.12709 10.0455 9.14258 10.0762C9.15807 10.1069 9.16702 10.1405 9.16884 10.1748C9.17065 10.2091 9.16531 10.2434 9.15314 10.2756C9.14098 10.3077 9.12226 10.337 9.09817 10.3615C9.07409 10.386 9.04514 10.4052 9.01322 10.418C8.9813 10.4307 8.94711 10.4366 8.91276 10.4354H8.74848L8.72238 9.94522L8.88666 9.94262ZM8.32864 9.97129C8.35976 9.96673 8.39141 9.96673 8.42254 9.97129C8.43649 9.97395 8.44973 9.9795 8.4614 9.98758C8.47308 9.99567 8.48291 10.0061 8.4903 10.0182C8.50747 10.0418 8.51746 10.0699 8.51902 10.0991C8.52154 10.1324 8.51229 10.1656 8.49291 10.1929C8.47994 10.2093 8.46285 10.2219 8.44339 10.2294C8.46817 10.2481 8.48714 10.2734 8.49813 10.3025L8.56071 10.4459H8.45901L8.40427 10.3155C8.39661 10.2975 8.38393 10.2821 8.36776 10.2712C8.3523 10.2609 8.33417 10.2555 8.31562 10.2555H8.21653V10.4511H8.12266L8.09659 9.96086L8.32864 9.97129ZM7.4864 10.2842C7.48319 10.2164 7.50658 10.1499 7.55159 10.0991C7.59855 10.0542 7.66139 10.0298 7.72631 10.0313C7.75832 10.0303 7.79015 10.0361 7.81979 10.0483C7.84943 10.0604 7.87623 10.0786 7.89841 10.1017C7.94034 10.1533 7.96322 10.2177 7.96322 10.2842C7.96322 10.3507 7.94034 10.4151 7.89841 10.4667C7.87623 10.4898 7.84943 10.508 7.81979 10.5201C7.79015 10.5323 7.75832 10.5381 7.72631 10.5371C7.6939 10.5381 7.66165 10.5323 7.63158 10.5202C7.60151 10.5081 7.57427 10.4899 7.55159 10.4667C7.52958 10.4405 7.51296 10.4102 7.50266 10.3775C7.49237 10.3449 7.48863 10.3105 7.49162 10.2764L7.4864 10.2842Z" fill="white"/>
<path d="M14.4616 11.4029C14.4705 11.4009 14.4786 11.3968 14.4855 11.3909C14.4923 11.3849 14.4975 11.3774 14.5008 11.369C14.5008 11.3429 14.5216 11.309 14.4564 11.2751L14.3391 11.2151L14.2817 11.3273L14.3887 11.382C14.4105 11.3958 14.4358 11.403 14.4616 11.4029Z" fill="white"/>
<path d="M7.90349 10.4589C7.94541 10.4073 7.96833 10.3429 7.96833 10.2764C7.96833 10.2099 7.94541 10.1455 7.90349 10.0939C7.8813 10.0708 7.85454 10.0526 7.8249 10.0405C7.79526 10.0283 7.76342 10.0225 7.73141 10.0235C7.66649 10.022 7.60365 10.0464 7.55669 10.0913C7.51168 10.1421 7.48829 10.2086 7.4915 10.2764C7.48897 10.3434 7.51232 10.4087 7.55669 10.4589C7.57937 10.4821 7.60661 10.5003 7.63668 10.5124C7.66675 10.5245 7.69901 10.5303 7.73141 10.5293C7.76342 10.5303 7.79526 10.5245 7.8249 10.5124C7.85454 10.5002 7.8813 10.482 7.90349 10.4589ZM7.6271 10.4016C7.59916 10.3638 7.58407 10.3181 7.58407 10.2712C7.58407 10.2242 7.59916 10.1785 7.6271 10.1408C7.64015 10.1262 7.65628 10.1146 7.67431 10.107C7.69234 10.0993 7.71183 10.0957 7.73141 10.0965C7.7506 10.0958 7.7697 10.0994 7.7873 10.107C7.80491 10.1147 7.82058 10.1263 7.83311 10.1408C7.86105 10.1785 7.87611 10.2242 7.87611 10.2712C7.87611 10.3181 7.86105 10.3638 7.83311 10.4016C7.82018 10.4163 7.80406 10.428 7.786 10.4357C7.76794 10.4433 7.7484 10.4468 7.7288 10.4459C7.70961 10.4466 7.69048 10.443 7.67287 10.4353C7.65527 10.4277 7.63963 10.4161 7.6271 10.4016Z" fill="#009A3A"/>
<path d="M8.23206 10.4615V10.266H8.33114C8.34969 10.2659 8.36786 10.2714 8.38331 10.2816C8.39949 10.2926 8.41217 10.308 8.41982 10.326L8.47457 10.4563H8.57627L8.51369 10.3129C8.5027 10.2839 8.4837 10.2586 8.45891 10.2399C8.47838 10.2324 8.4955 10.2198 8.50847 10.2034C8.52785 10.1761 8.53707 10.1429 8.53454 10.1095C8.53298 10.0804 8.52302 10.0523 8.50586 10.0287C8.49847 10.0166 8.48861 10.0061 8.47693 9.99805C8.46525 9.98996 8.45202 9.98441 8.43806 9.98176C8.40694 9.97719 8.37532 9.97719 8.3442 9.98176L8.12256 9.99479L8.14863 10.485L8.23206 10.4615ZM8.34158 10.0469C8.4146 10.0469 8.42762 10.0756 8.42762 10.1043C8.42986 10.1132 8.42959 10.1225 8.42683 10.1313C8.42406 10.14 8.41893 10.1479 8.41199 10.1539C8.39017 10.1674 8.36462 10.1738 8.33897 10.1721H8.21643V10.0443L8.34158 10.0469Z" fill="#009A3A"/>
<path d="M8.91789 10.4277C8.95223 10.4289 8.98646 10.4229 9.01838 10.4102C9.0503 10.3974 9.07922 10.3782 9.1033 10.3537C9.12739 10.3292 9.14611 10.2999 9.15827 10.2678C9.17044 10.2356 9.17581 10.2013 9.174 10.167C9.17218 10.1327 9.16323 10.0991 9.14774 10.0684C9.13225 10.0378 9.11055 10.0106 9.08401 9.9888C9.05747 9.96697 9.02667 9.95089 8.99358 9.9416C8.96049 9.93231 8.92584 9.93 8.89182 9.93483H8.72754L8.75361 10.425L8.91789 10.4277ZM8.89443 10.0235C8.91672 10.0191 8.93968 10.0196 8.96175 10.025C8.98381 10.0304 9.00445 10.0406 9.0222 10.0548C9.04792 10.0874 9.06173 10.1279 9.06132 10.1695C9.06669 10.213 9.05753 10.257 9.03525 10.2947C9.00205 10.3256 8.9581 10.3425 8.9127 10.3416H8.83185L8.81619 10.0235H8.89443Z" fill="#009A3A"/>
<path d="M9.73137 10.3416H9.44714V10.2191H9.70269V10.133H9.44714V10.0235H9.72094V9.93744H9.35327V10.4303H9.73137V10.3416Z" fill="#009A3A"/>
<path d="M10.0104 10.1486L10.0886 10.4667L10.1669 10.472L10.2972 10.1721L10.2712 10.4798L10.3624 10.4876L10.4041 9.99738L10.3442 9.99216L10.3468 9.97912L10.339 9.99216L10.2842 9.98695L10.1382 10.3259L10.0547 9.96869L9.99737 9.96348L9.99476 9.95044L9.99215 9.96348L9.93479 9.95826L9.89307 10.4485L9.98433 10.4563L10.0104 10.1486Z" fill="#009A3A"/>
<path d="M11.2621 10.5267L11.017 10.4876L11.0352 10.3781L11.2569 10.4146L11.2699 10.339L11.0483 10.3024L11.0639 10.2086L11.3012 10.2477L11.3142 10.1695L10.9961 10.1173L10.9231 10.5476L11.2516 10.6023L11.2621 10.5267Z" fill="#009A3A"/>
<path d="M11.9609 10.5841L12.0574 10.6102C12.1045 10.6273 12.1562 10.6273 12.2034 10.6102C12.2237 10.6005 12.2415 10.5862 12.2555 10.5686C12.2695 10.551 12.2793 10.5304 12.2842 10.5085C12.2921 10.4794 12.2921 10.4489 12.2842 10.4198C12.2752 10.3904 12.2558 10.3654 12.2295 10.3494C12.1998 10.3335 12.1683 10.3212 12.1356 10.3129L11.9531 10.2634L11.8201 10.7379L11.9114 10.7614L11.9609 10.5841ZM12.0209 10.3703L12.1173 10.3964L12.1721 10.4172C12.1811 10.4235 12.1875 10.4327 12.1904 10.4433C12.1956 10.4567 12.1956 10.4716 12.1904 10.485C12.189 10.4943 12.1854 10.5032 12.18 10.5109C12.1746 10.5186 12.1674 10.5249 12.1591 10.5293C12.1338 10.5385 12.1061 10.5385 12.0808 10.5293L11.9843 10.5033L12.0209 10.3703Z" fill="#009A3A"/>
<path d="M12.5449 10.7197L12.6387 10.751C12.6561 10.7583 12.6714 10.77 12.6831 10.7849C12.6937 10.8011 12.6991 10.8202 12.6987 10.8396V10.9804L12.7926 11.0117V10.8553C12.7936 10.8249 12.7854 10.7949 12.7691 10.7692C12.7903 10.7683 12.811 10.762 12.8291 10.751C12.8564 10.7336 12.8774 10.7081 12.8891 10.6779C12.8968 10.6489 12.8968 10.6183 12.8891 10.5893C12.8867 10.5756 12.8816 10.5624 12.8739 10.5508C12.8663 10.5391 12.8564 10.5292 12.8448 10.5215C12.8195 10.5036 12.7912 10.4904 12.7613 10.4824L12.5501 10.4094L12.3884 10.8761L12.4771 10.9048L12.5449 10.7197ZM12.6153 10.5189L12.7378 10.5606C12.8082 10.5841 12.8056 10.618 12.7978 10.6467C12.7951 10.6551 12.7907 10.663 12.7849 10.6697C12.7791 10.6764 12.7719 10.6819 12.7639 10.6858C12.7394 10.6939 12.7129 10.6939 12.6883 10.6858L12.5736 10.6493L12.6153 10.5189Z" fill="#009A3A"/>
<path d="M13.1343 11.1551C13.1633 11.1685 13.1949 11.1754 13.2269 11.1754C13.2588 11.1754 13.2904 11.1685 13.3194 11.1551C13.3831 11.1305 13.4347 11.0818 13.4628 11.0195C13.4952 10.9607 13.5036 10.8915 13.4863 10.8266C13.4767 10.7962 13.4609 10.7683 13.4397 10.7445C13.4186 10.7206 13.3927 10.7015 13.3638 10.6884C13.3357 10.673 13.3046 10.6638 13.2726 10.6616C13.2407 10.6593 13.2086 10.664 13.1786 10.6754C13.1469 10.6865 13.1177 10.704 13.0931 10.7269C13.0684 10.7498 13.0487 10.7775 13.0352 10.8083C13.0021 10.868 12.9937 10.9382 13.0117 11.0039C13.0197 11.0366 13.0348 11.0672 13.056 11.0933C13.0772 11.1195 13.1039 11.1406 13.1343 11.1551ZM13.1343 10.8657C13.1519 10.8226 13.1856 10.788 13.2282 10.7692C13.2459 10.7615 13.2649 10.7576 13.2842 10.7576C13.3035 10.7576 13.3226 10.7615 13.3403 10.7692C13.3576 10.7769 13.3729 10.7884 13.3851 10.8029C13.3972 10.8173 13.406 10.8343 13.4107 10.8527C13.4198 10.8972 13.4123 10.9435 13.3898 10.983C13.3714 11.025 13.3379 11.0585 13.296 11.0769C13.2782 11.0838 13.2592 11.087 13.2402 11.0863C13.2211 11.0855 13.2025 11.0808 13.1853 11.0725C13.1682 11.0642 13.1529 11.0524 13.1406 11.0379C13.1282 11.0234 13.119 11.0065 13.1134 10.9883C13.1009 10.9478 13.1037 10.9042 13.1212 10.8657H13.1343Z" fill="#009A3A"/>
<path d="M13.695 11.3585C13.7391 11.3841 13.7908 11.3934 13.841 11.3846V11.4211L13.9036 11.4524L14.0288 11.2151L13.8358 11.1186L13.7967 11.1942L13.9062 11.2516L13.8827 11.2933C13.8606 11.3048 13.836 11.3107 13.811 11.3107C13.7861 11.3107 13.7615 11.3048 13.7393 11.2933C13.7218 11.2849 13.7062 11.2729 13.6936 11.2581C13.6811 11.2433 13.6718 11.2259 13.6663 11.2073C13.6567 11.1624 13.6652 11.1156 13.6898 11.0769C13.7082 11.0349 13.7417 11.0014 13.7837 10.983C13.8012 10.9747 13.8203 10.9704 13.8397 10.9704C13.8591 10.9704 13.8783 10.9747 13.8958 10.983C13.9244 10.995 13.9482 11.0161 13.9636 11.043C13.9687 11.0536 13.9713 11.0652 13.9713 11.0769C13.9713 11.0886 13.9687 11.1002 13.9636 11.1108V11.1238L14.0496 11.1682V11.1499C14.0606 11.129 14.0663 11.1057 14.0663 11.0821C14.0663 11.0585 14.0606 11.0352 14.0496 11.0143C14.0239 10.9681 13.9848 10.9309 13.9375 10.9074C13.9089 10.8921 13.8775 10.8828 13.8452 10.8802C13.813 10.8775 13.7805 10.8814 13.7498 10.8918C13.6865 10.9158 13.6351 10.9635 13.6064 11.0248C13.5731 11.0833 13.5637 11.1524 13.5803 11.2177C13.5892 11.2476 13.604 11.2754 13.6236 11.2995C13.6433 11.3237 13.6676 11.3437 13.695 11.3585Z" fill="#009A3A"/>
<path d="M14.2398 11.4029L14.3258 11.4472C14.3432 11.4562 14.3571 11.471 14.365 11.4889C14.3715 11.5066 14.3715 11.526 14.365 11.5437L14.3441 11.6845L14.4354 11.7314L14.4536 11.575C14.4619 11.546 14.4619 11.5153 14.4536 11.4863C14.4733 11.4913 14.4939 11.4913 14.5136 11.4863C14.544 11.4735 14.5689 11.4504 14.584 11.4211C14.5969 11.3953 14.6024 11.3664 14.5996 11.3377C14.5993 11.3234 14.5961 11.3094 14.5903 11.2965C14.5845 11.2835 14.5761 11.2718 14.5657 11.2621C14.5432 11.2411 14.5177 11.2235 14.4901 11.2099L14.2919 11.1082L14.0625 11.5463L14.1459 11.588L14.2398 11.4029ZM14.3389 11.2151L14.4562 11.2751C14.5214 11.309 14.5136 11.3429 14.5006 11.369C14.4973 11.3774 14.4921 11.3849 14.4852 11.3908C14.4784 11.3967 14.4702 11.4009 14.4614 11.4029C14.4356 11.403 14.4103 11.3958 14.3884 11.382L14.2815 11.3272L14.3389 11.2151Z" fill="#009A3A"/>
<path d="M14.9832 11.9009L14.7328 11.7627L14.7954 11.6558L15.0197 11.7784L15.0614 11.7028L14.8397 11.5802L14.8919 11.4837L15.1318 11.6193L15.1761 11.5437L14.8554 11.3638L14.6077 11.7914L14.9388 11.9765L14.9832 11.9009Z" fill="#009A3A"/>
<path d="M15.2934 12.1929C15.334 12.2204 15.3827 12.2333 15.4316 12.2295C15.453 12.2267 15.4736 12.2195 15.492 12.2082C15.5104 12.197 15.5262 12.182 15.5385 12.1643C15.5554 12.138 15.562 12.1064 15.5568 12.0756C15.552 12.048 15.5403 12.0219 15.5229 12C15.501 11.9733 15.4775 11.948 15.4525 11.9244C15.4328 11.9055 15.4153 11.8845 15.4003 11.8618C15.397 11.8567 15.3953 11.8509 15.3953 11.8448C15.3953 11.8388 15.397 11.8329 15.4003 11.8279C15.4046 11.8215 15.4104 11.8162 15.4173 11.8126C15.4241 11.8089 15.4317 11.807 15.4394 11.807C15.4637 11.8089 15.487 11.817 15.5072 11.8305C15.5776 11.8748 15.5672 11.9139 15.5542 11.94V11.9531L15.6298 12.0026V11.987C15.6413 11.9685 15.6485 11.9476 15.6508 11.9259C15.653 11.9042 15.6503 11.8823 15.6428 11.8618C15.6226 11.8169 15.5889 11.7795 15.5463 11.7549C15.5084 11.7283 15.4621 11.7162 15.416 11.721C15.3957 11.7215 15.3759 11.7274 15.3585 11.7379C15.3411 11.7484 15.3268 11.7632 15.3169 11.781C15.3067 11.7951 15.3001 11.8115 15.2974 11.8287C15.2946 11.8459 15.296 11.8634 15.3012 11.88C15.3179 11.921 15.3438 11.9576 15.3768 11.987C15.4041 12.0121 15.4285 12.0401 15.4499 12.0704C15.4549 12.0772 15.4577 12.0854 15.4577 12.0939C15.4577 12.1023 15.4549 12.1106 15.4499 12.1173C15.4452 12.125 15.4387 12.1314 15.4309 12.1359C15.4232 12.1404 15.4145 12.143 15.4055 12.1434C15.3795 12.1425 15.3542 12.1344 15.3325 12.1199C15.3062 12.1051 15.2851 12.0823 15.2725 12.0547C15.2661 12.0436 15.2628 12.0311 15.2628 12.0182C15.2628 12.0054 15.2661 11.9928 15.2725 11.9817L15.1969 11.9348C15.1851 11.9551 15.1773 11.9775 15.1742 12.0008C15.1711 12.024 15.1726 12.0477 15.1787 12.0704C15.2005 12.124 15.2414 12.1676 15.2934 12.1929Z" fill="#009A3A"/>
<path d="M15.8019 12.5424C15.8418 12.5695 15.8893 12.5832 15.9375 12.5815C15.9589 12.5801 15.9798 12.5737 15.9983 12.5628C16.0169 12.552 16.0327 12.5369 16.0444 12.5189C16.0542 12.5065 16.0613 12.4923 16.0654 12.477C16.0694 12.4618 16.0702 12.4458 16.0678 12.4302C16.0624 12.4032 16.0518 12.3776 16.0365 12.3546C16.0209 12.3338 15.9974 12.3077 15.9687 12.2764C15.948 12.2576 15.9304 12.2356 15.9166 12.2112C15.9136 12.2061 15.9121 12.2002 15.9121 12.1943C15.9121 12.1883 15.9136 12.1825 15.9166 12.1773C15.9208 12.171 15.9267 12.166 15.9336 12.1627C15.9405 12.1595 15.9481 12.1583 15.9557 12.1591C15.9804 12.1609 16.004 12.1699 16.0235 12.1851C16.0913 12.2295 16.0809 12.2712 16.0652 12.2973L16.1409 12.3468V12.3338C16.1531 12.3151 16.1611 12.294 16.1643 12.2719C16.1674 12.2498 16.1657 12.2273 16.1591 12.206C16.1411 12.1614 16.1091 12.1239 16.0678 12.0991C16.0305 12.0705 15.9844 12.0558 15.9375 12.0574C15.917 12.0587 15.8971 12.0648 15.8794 12.0752C15.8618 12.0856 15.8468 12.1 15.8358 12.1173C15.8248 12.1306 15.8174 12.1464 15.8142 12.1632C15.811 12.1801 15.8122 12.1975 15.8175 12.2138C15.8313 12.2564 15.8565 12.2943 15.8905 12.3233C15.9168 12.3496 15.9403 12.3785 15.9609 12.4094C15.9653 12.4169 15.9676 12.4255 15.9676 12.4342C15.9676 12.4429 15.9653 12.4514 15.9609 12.4589C15.956 12.466 15.9493 12.4716 15.9415 12.4752C15.9338 12.4789 15.9252 12.4805 15.9166 12.4798C15.8901 12.479 15.8646 12.4699 15.8436 12.4537C15.8186 12.4391 15.7986 12.4173 15.7862 12.3911C15.7805 12.3798 15.7775 12.3673 15.7775 12.3546C15.7775 12.3419 15.7805 12.3294 15.7862 12.3181V12.3051L15.7106 12.2529V12.2686C15.6968 12.2875 15.6876 12.3093 15.6835 12.3324C15.6794 12.3554 15.6807 12.3791 15.6871 12.4016C15.6954 12.4317 15.7098 12.4599 15.7296 12.4841C15.7494 12.5084 15.774 12.5282 15.8019 12.5424Z" fill="#009A3A"/>
<path d="M16.2686 12.8996C16.2937 12.9194 16.3228 12.9334 16.3539 12.9406C16.385 12.9478 16.4173 12.9481 16.4485 12.9413C16.5146 12.9272 16.5725 12.8879 16.6102 12.8318C16.632 12.8061 16.6482 12.7761 16.6576 12.7438C16.667 12.7114 16.6695 12.6775 16.665 12.6441C16.6612 12.6126 16.6506 12.5823 16.6339 12.5552C16.6173 12.5282 16.595 12.5052 16.5685 12.4876C16.5429 12.4679 16.5133 12.454 16.4818 12.4468C16.4503 12.4396 16.4176 12.4393 16.3859 12.4459C16.3199 12.4601 16.262 12.4994 16.2243 12.5554C16.1824 12.6085 16.1627 12.6759 16.1695 12.7432C16.1734 12.775 16.1844 12.8055 16.2015 12.8325C16.2186 12.8596 16.2416 12.8825 16.2686 12.8996ZM16.3025 12.6102C16.3275 12.572 16.3655 12.5442 16.4094 12.532C16.4283 12.528 16.4478 12.5281 16.4667 12.5321C16.4855 12.5361 16.5033 12.5441 16.5189 12.5554C16.5348 12.5657 16.548 12.5795 16.5575 12.5958C16.5671 12.6121 16.5726 12.6304 16.5737 12.6493C16.5754 12.6719 16.5727 12.6946 16.5655 12.7161C16.5583 12.7376 16.547 12.7574 16.532 12.7745C16.5079 12.814 16.4697 12.8429 16.4251 12.8553C16.4066 12.8592 16.3875 12.8591 16.3691 12.8551C16.3506 12.851 16.3333 12.8431 16.3181 12.8318C16.3019 12.8217 16.2883 12.808 16.2784 12.7917C16.2684 12.7754 16.2624 12.757 16.2608 12.738C16.259 12.715 16.2617 12.6918 16.2689 12.6699C16.276 12.648 16.2875 12.6277 16.3025 12.6102Z" fill="#009A3A"/>
</g>
<defs>
<clipPath id="clip0_208_386">
<rect width="24" height="24" fill="white"/>
</clipPath>
</defs>
</svg>
