<svg width="24" height="24" viewBox="0 0 24 24" fill="none" xmlns="http://www.w3.org/2000/svg">
<g clip-path="url(#clip0_208_387)">
<path d="M18.3936 1.84615C16.48 0.638318 14.2629 -0.00184487 11.9999 3.99346e-06C11.5705 0.00107118 11.1413 0.0245684 10.7144 0.0704053V1.84615H18.3936Z" fill="#CC0C2F"/>
<path d="M10.7119 3.69753H20.6545C19.9773 2.99412 19.2184 2.37433 18.3938 1.85138H10.7119V3.69753Z" fill="white"/>
<path d="M10.7119 5.53847H22.1096C21.6854 4.87753 21.1981 4.25926 20.6545 3.69232H10.7119V5.53847Z" fill="#CC0C2F"/>
<path d="M10.7119 7.38461H23.0796C22.8106 6.74216 22.4861 6.12442 22.1096 5.53845H10.7119V7.38461Z" fill="white"/>
<path d="M10.7119 9.23079H23.6767C23.5278 8.60031 23.3281 7.98292 23.0796 7.38464H10.7119V9.23079Z" fill="#CC0C2F"/>
<path d="M10.7119 11.0769H23.961C23.9143 10.4551 23.8193 9.83783 23.6767 9.23077H10.7119V11.0769Z" fill="white"/>
<path d="M10.7119 12.9231H23.961C23.9844 12.6206 24.0001 12.3129 24.0001 12C24.0001 11.6871 23.9844 11.382 23.961 11.0769H10.7119V12.9231Z" fill="#CC0C2F"/>
<path d="M23.9608 12.9231H0.0390625C0.0854519 13.5458 0.180474 14.164 0.323278 14.7718H23.6766C23.8194 14.164 23.9144 13.5458 23.9608 12.9231Z" fill="white"/>
<path d="M23.6766 14.7719H0.323242C0.472563 15.4022 0.672258 16.0196 0.920384 16.618H23.0847C23.331 16.0194 23.529 15.4021 23.6766 14.7719Z" fill="#CC0C2F"/>
<path d="M23.0796 16.618H0.915283C1.1848 17.2602 1.50934 17.8779 1.88529 18.4641H22.1043C22.4821 17.8781 22.8084 17.2604 23.0796 16.618Z" fill="white"/>
<path d="M22.1094 18.4642H1.89038C2.31461 19.1251 2.80189 19.7434 3.34539 20.3103H20.6544C21.1979 19.7434 21.6852 19.1251 22.1094 18.4642Z" fill="#CC0C2F"/>
<path d="M20.6545 20.3103H3.34546C4.02266 21.0137 4.78166 21.6335 5.60623 22.1565H18.3833C19.2115 21.6342 19.974 21.0144 20.6545 20.3103Z" fill="white"/>
<path d="M18.3938 22.1564H5.6167C7.52958 23.3639 9.74572 24.0041 12.0078 24.0026C14.2682 24.0029 16.4823 23.3628 18.3938 22.1564Z" fill="#CC0C2F"/>
<path d="M10.7118 11.0769V0.0703735C9.46234 0.204226 8.24179 0.534222 7.09511 1.04821L6.7796 1.27768L6.93605 1.75486L6.52929 1.46021L6.12249 1.75486L6.20856 1.4941C5.86089 1.68706 5.52448 1.89567 5.19941 2.11992L5.2672 2.3207H5.76787L5.3611 2.61796L5.51755 3.09515L5.11076 2.79788L4.70399 3.09515L4.86044 2.61796L4.68833 2.4928C4.35748 2.74858 4.03981 3.02099 3.73657 3.30897L3.84871 3.65577H4.34937L3.94518 3.95043L4.09902 4.42761L3.69226 4.13296L3.28807 4.42761L3.44191 3.95043L3.24373 3.8044C2.93646 4.12993 2.6483 4.47297 2.38065 4.83178L2.43018 4.98824H2.93084L2.52665 5.28289L2.68052 5.76008L2.27634 5.46542L1.86958 5.76008L1.98951 5.3898C1.78873 5.68967 1.60359 5.99997 1.43149 6.3207H1.51495L1.38196 6.41718C1.31156 6.55016 1.24114 6.67794 1.17596 6.82136L1.26199 7.08211L1.10555 6.96738C0.804608 7.61345 0.562849 8.28547 0.383246 8.9752H0.701361L0.85784 8.49802L1.01168 8.9752H1.51495L1.10816 9.26985L1.26199 9.74704L0.85784 9.45238L0.451046 9.74704L0.607493 9.26985L0.346737 9.08733C0.109682 10.0383 -0.0102845 11.0147 -0.010498 11.9948C-0.010498 12.3077 0.00515369 12.6154 0.0286217 12.9178H10.7014L10.7118 11.0769ZM1.26199 12.4172L0.85784 12.1225L0.451046 12.4172L0.607493 11.94L0.20073 11.6453H0.701361L0.85784 11.1682L1.01168 11.6453H1.51495L1.10816 11.94L1.26199 12.4172ZM2.68052 11.0847L2.27634 10.7901L1.86958 11.0847L2.02341 10.6075L1.61923 10.3129H2.11989L2.27634 9.8357L2.43018 10.3129H2.93084L2.52665 10.6075L2.68052 11.0847ZM2.52665 7.9426L2.68052 8.41978L2.27634 8.12514L1.86958 8.41978L2.02341 7.9426L1.61923 7.64795H2.11989L2.27634 7.17077L2.43018 7.64795H2.93084L2.52665 7.9426ZM4.09119 12.4172L3.68443 12.1225L3.28024 12.4172L3.43411 11.94L3.02732 11.6453H3.53059L3.68443 11.1682L3.84088 11.6453H4.34154L3.93735 11.94L4.09119 12.4172ZM3.93735 9.27507L4.09119 9.75225L3.68443 9.4576L3.28024 9.75225L3.43411 9.27507L3.02732 8.98042H3.53059L3.68443 8.50323L3.84088 8.98042H4.34154L3.93735 9.27507ZM3.93735 6.61014L4.09119 7.08732L3.68443 6.79267L3.28024 7.08732L3.43411 6.61014L3.02732 6.31549H3.53059L3.68443 5.8383L3.84088 6.31549H4.34154L3.93735 6.61014ZM5.50189 11.0847L5.09513 10.7901L4.68833 11.0847L4.84478 10.6075L4.43802 10.3129H4.95431L5.10815 9.8357L5.26459 10.3129H5.76526L5.35849 10.6075L5.50189 11.0847ZM5.34544 7.9426L5.50189 8.41978L5.11076 8.13035L4.70399 8.425L4.86044 7.94782L4.45365 7.65317H4.95431L5.10815 7.17598L5.26459 7.65317H5.76526L5.34544 7.9426ZM5.34544 5.27768L5.50189 5.75486L5.09513 5.46021L4.68833 5.75486L4.84478 5.27768L4.43802 4.98302H4.95431L5.10815 4.50584L5.26459 4.98302H5.76526L5.34544 5.27768ZM6.90998 12.4172L6.50319 12.1225L6.09642 12.4172L6.25287 11.94L5.84611 11.6453H6.34674L6.50319 11.1682L6.65706 11.6453H7.1603L6.75353 11.94L6.90998 12.4172ZM6.75353 9.27507L6.90998 9.75225L6.50319 9.4576L6.09642 9.75225L6.25287 9.27507L5.84611 8.98042H6.34674L6.50319 8.50323L6.65706 8.98042H7.1603L6.75353 9.27507ZM6.75353 6.61014L6.90998 7.08732L6.50319 6.79267L6.09642 7.08732L6.25287 6.61014L5.84611 6.31549H6.34674L6.50319 5.8383L6.65706 6.31549H7.1603L6.75353 6.61014ZM6.75353 3.94521L6.90998 4.4224L6.50319 4.12774L6.09642 4.4224L6.25287 3.94521L5.84611 3.65056H6.34674L6.50319 3.17337L6.65706 3.65056H7.1603L6.75353 3.94521ZM8.31807 11.0847L7.91389 10.7901L7.50712 11.0847L7.66096 10.6075L7.25678 10.3129H7.75744L7.91389 9.8357L8.06772 10.3129H8.6049L8.1981 10.6075L8.31807 11.0847ZM8.16423 7.9426L8.31807 8.41978L7.91389 8.12514L7.50712 8.41978L7.66096 7.9426L7.25678 7.64795H7.75744L7.91389 7.17077L8.06772 7.64795H8.6049L8.16423 7.9426ZM8.16423 5.27768L8.31807 5.75486L7.91389 5.46021L7.50712 5.75486L7.66096 5.27768L7.25678 4.98302H7.75744L7.91389 4.50584L8.06772 4.98302H8.6049L8.16423 5.27768ZM8.16423 2.61275L8.31807 3.08993L7.91389 2.79267L7.50712 3.08993L7.66096 2.61275L7.30112 2.31549H7.80178L7.95823 1.8383L8.11206 2.31549H8.6049L8.16423 2.61275ZM9.72877 12.4172L9.32198 12.1225L8.91779 12.4172L9.07166 11.94L8.66748 11.6453H9.16814L9.32198 11.1682L9.47842 11.6453H9.97909L9.5749 11.94L9.72877 12.4172ZM9.5749 9.27507L9.72877 9.75225L9.32198 9.4576L8.91779 9.75225L9.07166 9.27507L8.66748 8.98042H9.16814L9.32198 8.50323L9.47842 8.98042H9.97909L9.5749 9.27507ZM9.5749 6.61014L9.72877 7.08732L9.32198 6.79267L8.91779 7.08732L9.07166 6.61014L8.70921 6.30506H9.20984L9.36371 5.82787L9.52015 6.30506H10.0208L9.5749 6.61014ZM9.5749 3.94521L9.72877 4.4224L9.32198 4.12774L8.91779 4.4224L9.12641 3.95825L8.72222 3.66359H9.22289L9.37673 3.18641L9.5332 3.66359H10.0338L9.5749 3.94521ZM9.5749 1.27768L9.72877 1.75486L9.32198 1.46021L8.91779 1.75486L9.07166 1.27768L8.66748 0.98302H9.16814L9.32198 0.50584L9.47842 0.98302H9.97909L9.5749 1.27768Z" fill="#002C77"/>
<path d="M4.96745 2.27899L4.91528 2.3155H4.95701L4.96745 2.27899Z" fill="#002C77"/>
<path d="M3.61145 3.43677C3.53583 3.50978 3.46022 3.5854 3.38721 3.66362H3.53843L3.61145 3.43677Z" fill="#002C77"/>
<path d="M2.27639 5.46024L2.68058 5.7549L2.52671 5.27771L2.93089 4.98305H2.43023L2.3807 4.8266C2.24511 5.00913 2.11994 5.19427 1.98957 5.38462L1.86963 5.7549L2.27639 5.46024Z" fill="white"/>
<path d="M2.27649 7.17078L2.12004 7.64796H1.61938L2.02356 7.94261L1.86971 8.4198L2.27649 8.12514L2.68066 8.4198L2.52682 7.94261L2.9336 7.64796H2.43034L2.27649 7.17078Z" fill="white"/>
<path d="M2.43034 10.3129L2.27649 9.83569L2.12004 10.3129H1.61938L2.02356 10.6075L1.86971 11.0847L2.27649 10.7901L2.68066 11.0847L2.52682 10.6075L2.9336 10.3129H2.43034Z" fill="white"/>
<path d="M5.11072 4.50323L4.95687 4.98042H4.45361L4.86039 5.27507L4.70655 5.75486L5.11072 5.4576L5.5175 5.75486L5.36365 5.27507L5.76782 4.98042H5.26717L5.11072 4.50323Z" fill="white"/>
<path d="M5.11072 7.17078L4.95687 7.64796H4.45361L4.86039 7.94261L4.70655 8.4198L5.11072 8.12514L5.5175 8.4198L5.36365 7.94261L5.76782 7.64796H5.26717L5.11072 7.17078Z" fill="white"/>
<path d="M5.26717 10.3129L5.11072 9.83569L4.95687 10.3129H4.45361L4.86039 10.6075L4.70655 11.0847L5.11072 10.7901L5.5175 11.0847L5.36365 10.6075L5.76782 10.3129H5.26717Z" fill="white"/>
<path d="M7.94788 4.50323L7.79142 4.98042H7.29077L7.69755 5.27507L7.5411 5.75486L7.94788 5.4576L8.35466 5.75486L8.1982 5.27507L8.60498 4.98042H8.10172L7.94788 4.50323Z" fill="white"/>
<path d="M7.94788 7.17078L7.79142 7.64796H7.29077L7.69755 7.94261L7.5411 8.4198L7.94788 8.12514L8.35466 8.4198L8.1982 7.94261L8.60498 7.64796H8.10172L7.94788 7.17078Z" fill="white"/>
<path d="M8.10172 10.3129L7.94788 9.83569L7.79142 10.3129H7.29077L7.69755 10.6075L7.5411 11.0847L7.94788 10.7901L8.35466 11.0847L8.1982 10.6075L8.60498 10.3129H8.10172Z" fill="white"/>
<path d="M4.6937 3.08998L5.10049 2.79271L5.50725 3.08998L5.35081 2.61279L5.75757 2.31553H5.25694L5.18914 2.11475C5.11091 2.1669 5.03529 2.22426 4.95706 2.27902V2.31553H4.91533L4.68848 2.48763L4.86058 2.61279L4.6937 3.08998Z" fill="white"/>
<path d="M7.94788 1.83832L7.79142 2.3155H7.29077L7.69755 2.61016L7.5411 3.08734L7.94788 2.79268L8.35466 3.08734L8.1982 2.61016L8.60498 2.3155H8.10172L7.94788 1.83832Z" fill="white"/>
<path d="M1.17612 6.8266C1.15005 6.87875 1.12918 6.9309 1.10571 6.98306L1.26216 7.09779L1.17612 6.8266Z" fill="white"/>
<path d="M1.43161 6.30511C1.41336 6.33641 1.39773 6.3703 1.38208 6.40159L1.51507 6.30511H1.43161Z" fill="white"/>
<path d="M0.451046 9.75226L0.857841 9.4576L1.26199 9.75226L1.10816 9.27508L1.51495 8.98042H1.01168L0.857841 8.50323L0.701362 8.98042H0.383247C0.383247 9.01693 0.365 9.05604 0.357178 9.09255L0.617934 9.27508L0.451046 9.75226Z" fill="white"/>
<path d="M1.01164 11.6454L0.857789 11.1682L0.701336 11.6454H0.200684L0.607463 11.94L0.45101 12.4172L0.857789 12.1226L1.26457 12.4172L1.10812 11.94L1.5149 11.6454H1.01164Z" fill="white"/>
<path d="M3.28807 4.42242L3.69225 4.12776L4.09901 4.42242L3.94518 3.94524L4.34936 3.65058H3.8487L3.73656 3.30377L3.6114 3.42373L3.53838 3.65058H3.38977L3.24634 3.79922L3.44451 3.94524L3.28807 4.42242Z" fill="white"/>
<path d="M3.69234 5.83832L3.53849 6.3155H3.03784L3.44201 6.61016L3.28817 7.08734L3.69234 6.79269L4.09912 7.08734L3.94527 6.61016L4.34945 6.3155H3.84879L3.69234 5.83832Z" fill="white"/>
<path d="M3.69234 8.50323L3.53849 8.98042H3.03784L3.44201 9.27507L3.28817 9.75226L3.69234 9.4576L4.09912 9.75226L3.94527 9.27507L4.34945 8.98042H3.84879L3.69234 8.50323Z" fill="white"/>
<path d="M3.84879 11.6454L3.69234 11.1682L3.53849 11.6454H3.03784L3.44201 11.94L3.28817 12.4172L3.69234 12.1226L4.09912 12.4172L3.94527 11.94L4.34945 11.6454H3.84879Z" fill="white"/>
<path d="M6.52942 3.17078L6.37557 3.64796H5.87231L6.27909 3.94261L6.12264 4.4198L6.52942 4.12514L6.9362 4.4198L6.77975 3.94261L7.18653 3.64796H6.68587L6.52942 3.17078Z" fill="white"/>
<path d="M6.52942 5.83832L6.37557 6.3155H5.87231L6.27909 6.61016L6.12264 7.08734L6.52942 6.79269L6.9362 7.08734L6.77975 6.61016L7.18653 6.3155H6.68587L6.52942 5.83832Z" fill="white"/>
<path d="M6.52942 8.50323L6.37557 8.98042H5.87231L6.27909 9.27507L6.12264 9.75226L6.52942 9.4576L6.9362 9.75226L6.77975 9.27507L7.18653 8.98042H6.68587L6.52942 8.50323Z" fill="white"/>
<path d="M6.68587 11.6454L6.52942 11.1682L6.37557 11.6454H5.87231L6.27909 11.94L6.12264 12.4172L6.52942 12.1226L6.9362 12.4172L6.77975 11.94L7.18653 11.6454H6.68587Z" fill="white"/>
<path d="M9.36633 3.17078L9.20988 3.64796H8.70923L9.1134 3.94261L8.95955 4.4198L9.36633 4.12514L9.77051 4.4198L9.61666 3.94261L10.0234 3.64796H9.52018L9.36633 3.17078Z" fill="white"/>
<path d="M9.36633 5.83832L9.20988 6.3155H8.70923L9.1134 6.61016L8.95955 7.08734L9.36633 6.79269L9.77051 7.08734L9.61666 6.61016L10.0234 6.3155H9.52018L9.36633 5.83832Z" fill="white"/>
<path d="M9.36633 8.50323L9.20988 8.98042H8.70923L9.1134 9.27507L8.95955 9.75226L9.36633 9.4576L9.77051 9.75226L9.61666 9.27507L10.0234 8.98042H9.52018L9.36633 8.50323Z" fill="white"/>
<path d="M9.52018 11.6454L9.36633 11.1682L9.20988 11.6454H8.70923L9.1134 11.94L8.95955 12.4172L9.36633 12.1226L9.77051 12.4172L9.61666 11.94L10.0234 11.6454H9.52018Z" fill="white"/>
<path d="M6.51886 1.46022L6.92565 1.75487L6.76917 1.27768L7.08471 1.04822C6.78484 1.18381 6.48757 1.32984 6.19813 1.4889L6.11206 1.74965L6.51886 1.46022Z" fill="white"/>
<path d="M9.36633 0.505859L9.20988 0.983043H8.70923L9.1134 1.2777L8.95955 1.75488L9.36633 1.46023L9.77051 1.75488L9.61666 1.2777L10.0234 0.983043H9.52018L9.36633 0.505859Z" fill="white"/>
</g>
<defs>
<clipPath id="clip0_208_387">
<rect width="24" height="24" fill="white"/>
</clipPath>
</defs>
</svg>
