<svg width="265" height="257" viewBox="0 0 265 257" fill="none" xmlns="http://www.w3.org/2000/svg">
<g clip-path="url(#clip0_69_149)">
<path d="M201.74 209.12C218.201 194.964 229.956 176.127 235.44 155.12L238.03 155.78C232.413 177.33 220.361 196.655 203.48 211.18L201.74 209.12Z" fill="#7305E8"/>
<path d="M47.82 193.56C61.1235 210.729 79.3318 223.448 100.03 230.03L99.23 232.58C78.0093 225.836 59.3428 212.795 45.71 195.19L47.82 193.56Z" fill="#7305E8"/>
<path d="M132.15 236.62C124.675 236.62 117.22 235.856 109.9 234.34L110.03 233.68C122.917 236.347 136.18 236.665 149.18 234.62C162.182 232.577 174.689 228.128 186.06 221.5L186.4 222.08C174.954 228.748 162.366 233.224 149.28 235.28C143.613 236.169 137.886 236.617 132.15 236.62Z" fill="#7305E8"/>
<path d="M184.73 222.65C184.465 222.178 184.396 221.621 184.538 221.099C184.68 220.577 185.022 220.132 185.49 219.86C185.963 219.595 186.519 219.522 187.044 219.656C187.569 219.79 188.022 220.121 188.31 220.58C188.453 220.812 188.546 221.071 188.585 221.341C188.624 221.611 188.608 221.886 188.536 222.149C188.465 222.412 188.341 222.658 188.171 222.871C188.002 223.085 187.79 223.261 187.55 223.39C187.319 223.535 187.06 223.631 186.79 223.673C186.52 223.714 186.244 223.699 185.98 223.63C185.716 223.561 185.468 223.438 185.253 223.269C185.038 223.101 184.86 222.89 184.73 222.65Z" fill="#7305E8"/>
<path d="M107.95 233.55C108.036 233.15 108.238 232.785 108.531 232.5C108.824 232.215 109.196 232.023 109.598 231.949C110 231.874 110.415 231.921 110.791 232.082C111.167 232.243 111.486 232.512 111.709 232.855C111.932 233.198 112.049 233.599 112.044 234.008C112.039 234.417 111.913 234.816 111.682 235.153C111.451 235.491 111.125 235.752 110.746 235.905C110.366 236.057 109.95 236.094 109.55 236.01C109.283 235.954 109.03 235.846 108.805 235.692C108.58 235.538 108.387 235.341 108.239 235.113C108.09 234.884 107.988 234.628 107.938 234.36C107.889 234.092 107.893 233.817 107.95 233.55Z" fill="#7305E8"/>
<path d="M99.26 232.58C98.06 233.17 96.83 233.76 95.58 234.33C84.7528 230.589 74.5615 225.213 65.36 218.39C65.08 216.76 64.86 215.11 64.65 213.5L65.81 214.33L67.13 215.28L68.91 216.44C70.21 217.28 71.71 218.29 73.41 219.23L75.99 220.73L78.73 222.16C82.1036 223.917 85.5686 225.492 89.11 226.88C90.54 227.5 91.8 227.88 92.68 228.22C93.1693 228.382 93.65 228.569 94.12 228.78L95.05 229.54L96.79 230.81L99.26 232.58Z" fill="#7305E8"/>
<path d="M45.71 195.19V195.01L45.99 192.75L46.35 190.49C43.1333 186.098 40.2773 181.453 37.81 176.6L38.22 175.24C38.3181 174.81 38.4763 174.396 38.69 174.01L40.31 177.18C40.77 178.13 41.43 179.18 42.07 180.31L43.07 182.06C43.43 182.65 43.82 183.23 44.19 183.82C45.65 186.2 47.29 188.45 48.5 190.15C49.11 191 49.67 191.66 50.04 192.15L50.63 192.9C50.45 194.33 50.26 195.81 50.16 197.24L45.71 195.19Z" fill="#7305E8"/>
<path d="M232.26 165.26C231.5 163.62 230.67 162 229.86 160.44C231.712 154.76 233.077 148.932 233.94 143.02C235.17 144.55 236.23 146.09 237.37 147.71C236.336 153.407 234.835 159.01 232.88 164.46C232.66 164.73 232.47 165 232.26 165.26Z" fill="#7305E8"/>
<path d="M32.83 159.27L33.68 161.78L25.97 164.4L25.05 161.69L32.83 159.27Z" fill="#7305E8"/>
<path d="M236.13 130.96L236.2 128.31H244.34L244.27 131.17L236.13 130.96Z" fill="#7305E8"/>
<path d="M29.32 143.97L29.78 146.59L21.78 148.01C21.62 147.07 21.44 146.13 21.29 145.19L29.32 143.97Z" fill="#7305E8"/>
<path d="M28.14 128.31L28.21 130.96L20.07 131.17L20 128.31H28.14Z" fill="#7305E8"/>
<path d="M62.6 47.5C46.1445 61.6608 34.39 80.4958 28.9 101.5L26.32 100.84C31.9336 79.2915 43.9824 59.9658 60.86 45.4399L62.6 47.5Z" fill="#7305E8"/>
<path d="M216.52 63.0601C203.219 45.8891 185.01 33.1697 164.31 26.5901L165.12 24.04C186.338 30.7841 205.001 43.8249 218.63 61.4299L216.52 63.0601Z" fill="#7305E8"/>
<path d="M78.26 35.1202L77.93 34.5401C89.3725 27.8727 101.957 23.3963 115.04 21.3401C128.12 19.2848 141.463 19.6032 154.43 22.2801L154.29 22.94C141.403 20.2732 128.14 19.9548 115.14 22C102.139 24.0459 89.6322 28.4952 78.26 35.1202Z" fill="#7305E8"/>
<path d="M79.62 33.9701C79.8799 34.4429 79.9459 34.9983 79.8041 35.5189C79.6623 36.0395 79.3238 36.4844 78.86 36.7601C78.388 37.0276 77.8307 37.1021 77.305 36.9679C76.7793 36.8337 76.326 36.5012 76.04 36.0401C75.8969 35.8085 75.8027 35.55 75.763 35.2806C75.7233 35.0112 75.739 34.7366 75.8093 34.4735C75.8795 34.2104 76.0027 33.9644 76.1713 33.7506C76.34 33.5368 76.5505 33.3596 76.79 33.2301C77.0218 33.0833 77.2813 32.9859 77.5524 32.9437C77.8235 32.9015 78.1004 32.9156 78.3658 32.985C78.6313 33.0544 78.8796 33.1775 79.0954 33.347C79.3111 33.5165 79.4897 33.7286 79.62 33.9701Z" fill="#7305E8"/>
<path d="M156.39 23.07C156.336 23.3329 156.229 23.5823 156.077 23.8031C155.924 24.024 155.729 24.2119 155.502 24.3556C155.275 24.4993 155.022 24.5959 154.757 24.6396C154.492 24.6833 154.221 24.6733 153.96 24.61C153.578 24.5175 153.233 24.3147 152.965 24.027C152.698 23.7393 152.522 23.3792 152.458 22.9918C152.394 22.6045 152.445 22.2068 152.606 21.8485C152.767 21.4902 153.029 21.1871 153.361 20.977C153.692 20.7668 154.078 20.6589 154.471 20.6667C154.863 20.6745 155.245 20.7975 155.568 21.0207C155.891 21.2438 156.141 21.5574 156.287 21.9218C156.434 22.2862 156.469 22.6854 156.39 23.07Z" fill="#7305E8"/>
<path d="M165.12 24.04C166.32 23.45 167.55 22.86 168.8 22.29C179.623 26.0335 189.811 31.4088 199.01 38.23C199.29 39.86 199.51 41.5101 199.72 43.1201L198.57 42.29L197.24 41.3401L195.46 40.1899C194.16 39.3399 192.66 38.3301 190.96 37.3901L188.38 35.8901L185.65 34.46C182.275 32.7051 178.811 31.1296 175.27 29.74C173.83 29.12 172.57 28.7401 171.7 28.4001C170.83 28.0601 170.3 27.8801 170.25 27.8401L169.32 27.0801L167.58 25.8101L165.12 24.04Z" fill="#7305E8"/>
<path d="M218.63 61.4299V61.6101L218.36 63.8701L218 66.1301C221.211 70.5238 224.064 75.1687 226.53 80.02L226.13 81.3801C226.029 81.8093 225.871 82.223 225.66 82.6101L224.03 79.4399C223.58 78.4899 222.91 77.4401 222.28 76.3101C221.95 75.7401 221.61 75.1601 221.28 74.5601C220.95 73.9601 220.54 73.39 220.17 72.8C218.71 70.42 217.06 68.18 215.85 66.47C215.25 65.63 214.68 64.96 214.31 64.47L213.72 63.72C213.91 62.29 214.1 60.8101 214.19 59.3801L218.63 61.4299Z" fill="#7305E8"/>
<path d="M32.09 91.3601C32.86 93.0001 33.68 94.6199 34.5 96.1799C32.643 101.859 31.2779 107.687 30.42 113.6C29.18 112.08 28.13 110.53 26.99 108.91C28.019 103.212 29.5208 97.6091 31.48 92.1602C31.68 91.8902 31.87 91.6201 32.09 91.3601Z" fill="#7305E8"/>
<path d="M231.51 97.34L230.66 94.83L238.37 92.21L239.28 94.92L231.51 97.34Z" fill="#7305E8"/>
<path d="M28.21 125.65L28.14 128.31H20L20.07 125.45L28.21 125.65Z" fill="#7305E8"/>
<path d="M235.03 112.65L234.57 110.03L242.57 108.61C242.74 109.55 242.92 110.49 243.06 111.43L235.03 112.65Z" fill="#7305E8"/>
<path d="M236.2 128.31L236.13 125.65L244.27 125.45L244.34 128.31H236.2Z" fill="#7305E8"/>
</g>
<g clip-path="url(#clip1_69_149)" filter="url(#filter0_f_69_149)">
<path d="M201.74 209.12C218.201 194.964 229.956 176.127 235.44 155.12L238.03 155.78C232.413 177.33 220.361 196.655 203.48 211.18L201.74 209.12Z" fill="#7305E8"/>
<path d="M47.82 193.56C61.1235 210.729 79.3318 223.448 100.03 230.03L99.23 232.58C78.0093 225.836 59.3428 212.795 45.71 195.19L47.82 193.56Z" fill="#7305E8"/>
<path d="M132.15 236.62C124.675 236.62 117.22 235.856 109.9 234.34L110.03 233.68C122.917 236.347 136.18 236.665 149.18 234.62C162.182 232.577 174.689 228.128 186.06 221.5L186.4 222.08C174.954 228.748 162.366 233.224 149.28 235.28C143.613 236.169 137.886 236.617 132.15 236.62Z" fill="#7305E8"/>
<path d="M184.73 222.65C184.465 222.178 184.396 221.621 184.538 221.099C184.68 220.577 185.022 220.132 185.49 219.86C185.963 219.595 186.519 219.522 187.044 219.656C187.569 219.79 188.022 220.121 188.31 220.58C188.453 220.812 188.546 221.071 188.585 221.341C188.624 221.611 188.608 221.886 188.536 222.149C188.465 222.412 188.341 222.658 188.171 222.871C188.002 223.085 187.79 223.261 187.55 223.39C187.319 223.535 187.06 223.631 186.79 223.673C186.52 223.714 186.244 223.699 185.98 223.63C185.716 223.561 185.468 223.438 185.253 223.269C185.038 223.101 184.86 222.89 184.73 222.65Z" fill="#7305E8"/>
<path d="M107.95 233.55C108.036 233.15 108.238 232.785 108.531 232.5C108.824 232.215 109.196 232.023 109.598 231.949C110 231.874 110.415 231.921 110.791 232.082C111.167 232.243 111.486 232.512 111.709 232.855C111.932 233.198 112.049 233.599 112.044 234.008C112.039 234.417 111.913 234.816 111.682 235.153C111.451 235.491 111.125 235.752 110.746 235.905C110.366 236.057 109.95 236.094 109.55 236.01C109.283 235.954 109.03 235.846 108.805 235.692C108.58 235.538 108.387 235.341 108.239 235.113C108.09 234.884 107.988 234.628 107.938 234.36C107.889 234.092 107.893 233.817 107.95 233.55Z" fill="#7305E8"/>
<path d="M99.26 232.58C98.06 233.17 96.83 233.76 95.58 234.33C84.7528 230.589 74.5615 225.213 65.36 218.39C65.08 216.76 64.86 215.11 64.65 213.5L65.81 214.33L67.13 215.28L68.91 216.44C70.21 217.28 71.71 218.29 73.41 219.23L75.99 220.73L78.73 222.16C82.1036 223.917 85.5686 225.492 89.11 226.88C90.54 227.5 91.8 227.88 92.68 228.22C93.1693 228.382 93.65 228.569 94.12 228.78L95.05 229.54L96.79 230.81L99.26 232.58Z" fill="#7305E8"/>
<path d="M45.71 195.19V195.01L45.99 192.75L46.35 190.49C43.1333 186.098 40.2773 181.453 37.81 176.6L38.22 175.24C38.3181 174.81 38.4763 174.396 38.69 174.01L40.31 177.18C40.77 178.13 41.43 179.18 42.07 180.31L43.07 182.06C43.43 182.65 43.82 183.23 44.19 183.82C45.65 186.2 47.29 188.45 48.5 190.15C49.11 191 49.67 191.66 50.04 192.15L50.63 192.9C50.45 194.33 50.26 195.81 50.16 197.24L45.71 195.19Z" fill="#7305E8"/>
<path d="M232.26 165.26C231.5 163.62 230.67 162 229.86 160.44C231.712 154.76 233.077 148.932 233.94 143.02C235.17 144.55 236.23 146.09 237.37 147.71C236.336 153.407 234.835 159.01 232.88 164.46C232.66 164.73 232.47 165 232.26 165.26Z" fill="#7305E8"/>
<path d="M32.83 159.27L33.68 161.78L25.97 164.4L25.05 161.69L32.83 159.27Z" fill="#7305E8"/>
<path d="M236.13 130.96L236.2 128.31H244.34L244.27 131.17L236.13 130.96Z" fill="#7305E8"/>
<path d="M29.32 143.97L29.78 146.59L21.78 148.01C21.62 147.07 21.44 146.13 21.29 145.19L29.32 143.97Z" fill="#7305E8"/>
<path d="M28.14 128.31L28.21 130.96L20.07 131.17L20 128.31H28.14Z" fill="#7305E8"/>
<path d="M62.6 47.5C46.1445 61.6608 34.39 80.4958 28.9 101.5L26.32 100.84C31.9336 79.2915 43.9824 59.9658 60.86 45.4399L62.6 47.5Z" fill="#7305E8"/>
<path d="M216.52 63.0601C203.219 45.8891 185.01 33.1697 164.31 26.5901L165.12 24.04C186.338 30.7841 205.001 43.8249 218.63 61.4299L216.52 63.0601Z" fill="#7305E8"/>
<path d="M78.26 35.1202L77.93 34.5401C89.3725 27.8727 101.957 23.3963 115.04 21.3401C128.12 19.2848 141.463 19.6032 154.43 22.2801L154.29 22.94C141.403 20.2732 128.14 19.9548 115.14 22C102.139 24.0459 89.6322 28.4952 78.26 35.1202Z" fill="#7305E8"/>
<path d="M79.62 33.9701C79.8799 34.4429 79.9459 34.9983 79.8041 35.5189C79.6623 36.0395 79.3238 36.4844 78.86 36.7601C78.388 37.0276 77.8307 37.1021 77.305 36.9679C76.7793 36.8337 76.326 36.5012 76.04 36.0401C75.8969 35.8085 75.8027 35.55 75.763 35.2806C75.7233 35.0112 75.739 34.7366 75.8093 34.4735C75.8795 34.2104 76.0027 33.9644 76.1713 33.7506C76.34 33.5368 76.5505 33.3596 76.79 33.2301C77.0218 33.0833 77.2813 32.9859 77.5524 32.9437C77.8235 32.9015 78.1004 32.9156 78.3658 32.985C78.6313 33.0544 78.8796 33.1775 79.0954 33.347C79.3111 33.5165 79.4897 33.7286 79.62 33.9701Z" fill="#7305E8"/>
<path d="M156.39 23.07C156.336 23.3329 156.229 23.5823 156.077 23.8031C155.924 24.024 155.729 24.2119 155.502 24.3556C155.275 24.4993 155.022 24.5959 154.757 24.6396C154.492 24.6833 154.221 24.6733 153.96 24.61C153.578 24.5175 153.233 24.3147 152.965 24.027C152.698 23.7393 152.522 23.3792 152.458 22.9918C152.394 22.6045 152.445 22.2068 152.606 21.8485C152.767 21.4902 153.029 21.1871 153.361 20.977C153.692 20.7668 154.078 20.6589 154.471 20.6667C154.863 20.6745 155.245 20.7975 155.568 21.0207C155.891 21.2438 156.141 21.5574 156.287 21.9218C156.434 22.2862 156.469 22.6854 156.39 23.07Z" fill="#7305E8"/>
<path d="M165.12 24.04C166.32 23.45 167.55 22.86 168.8 22.29C179.623 26.0335 189.811 31.4088 199.01 38.23C199.29 39.86 199.51 41.5101 199.72 43.1201L198.57 42.29L197.24 41.3401L195.46 40.1899C194.16 39.3399 192.66 38.3301 190.96 37.3901L188.38 35.8901L185.65 34.46C182.275 32.7051 178.811 31.1296 175.27 29.74C173.83 29.12 172.57 28.7401 171.7 28.4001C170.83 28.0601 170.3 27.8801 170.25 27.8401L169.32 27.0801L167.58 25.8101L165.12 24.04Z" fill="#7305E8"/>
<path d="M218.63 61.4299V61.6101L218.36 63.8701L218 66.1301C221.211 70.5238 224.064 75.1687 226.53 80.02L226.13 81.3801C226.029 81.8093 225.871 82.223 225.66 82.6101L224.03 79.4399C223.58 78.4899 222.91 77.4401 222.28 76.3101C221.95 75.7401 221.61 75.1601 221.28 74.5601C220.95 73.9601 220.54 73.39 220.17 72.8C218.71 70.42 217.06 68.18 215.85 66.47C215.25 65.63 214.68 64.96 214.31 64.47L213.72 63.72C213.91 62.29 214.1 60.8101 214.19 59.3801L218.63 61.4299Z" fill="#7305E8"/>
<path d="M32.09 91.3601C32.86 93.0001 33.68 94.6199 34.5 96.1799C32.643 101.859 31.2779 107.687 30.42 113.6C29.18 112.08 28.13 110.53 26.99 108.91C28.019 103.212 29.5208 97.6091 31.48 92.1602C31.68 91.8902 31.87 91.6201 32.09 91.3601Z" fill="#7305E8"/>
<path d="M231.51 97.34L230.66 94.83L238.37 92.21L239.28 94.92L231.51 97.34Z" fill="#7305E8"/>
<path d="M28.21 125.65L28.14 128.31H20L20.07 125.45L28.21 125.65Z" fill="#7305E8"/>
<path d="M235.03 112.65L234.57 110.03L242.57 108.61C242.74 109.55 242.92 110.49 243.06 111.43L235.03 112.65Z" fill="#7305E8"/>
<path d="M236.2 128.31L236.13 125.65L244.27 125.45L244.34 128.31H236.2Z" fill="#7305E8"/>
</g>
<defs>
<filter id="filter0_f_69_149" x="0" y="0" width="264.34" height="256.61" filterUnits="userSpaceOnUse" color-interpolation-filters="sRGB">
<feFlood flood-opacity="0" result="BackgroundImageFix"/>
<feBlend mode="normal" in="SourceGraphic" in2="BackgroundImageFix" result="shape"/>
<feGaussianBlur stdDeviation="10" result="effect1_foregroundBlur_69_149"/>
</filter>
<clipPath id="clip0_69_149">
<rect width="224.34" height="216.61" fill="white" transform="translate(20 20)"/>
</clipPath>
<clipPath id="clip1_69_149">
<rect width="224.34" height="216.61" fill="white" transform="translate(20 20)"/>
</clipPath>
</defs>
</svg>
